HIERARCHY
ROOT hip
{
  OFFSET 0 0 0
  CHANNELS 6 Xposition Yposition Zposition Zrotation Yrotation Xrotation
  JOINT abdomen
  {
    OFFSET 0 20.6881 -0.73152
    CHANNELS 3 Zrotation Xrotation Yrotation
    JOINT chest
    {
      OFFSET 0 11.7043 -0.48768
      CHANNELS 3 Zrotation Xrotation Yrotation
      JOINT neck
      {
        OFFSET 0 22.1894 -2.19456
        CHANNELS 3 Zrotation Xrotation Yrotation
        JOINT head
        {
          OFFSET -0.24384 7.07133 1.2192
          CHANNELS 3 Zrotation Xrotation Yrotation
          JOINT leftEye
          {
            OFFSET 4.14528 8.04674 8.04672
            CHANNELS 3 Zrotation Xrotation Yrotation
            End Site
            {
              OFFSET 1 0 0
            }
          }
          JOINT rightEye
          {
            OFFSET -3.6576 8.04674 8.04672
            CHANNELS 3 Zrotation Xrotation Yrotation
            End Site
            {
              OFFSET 1 0 0
            }
          }
        }
      }
      JOINT rCollar
      {
        OFFSET -2.68224 19.2634 -4.8768
        CHANNELS 3 Zrotation Xrotation Yrotation
        JOINT rShldr
        {
          OFFSET -8.77824 -1.95073 1.46304
          CHANNELS 3 Zrotation Xrotation Yrotation
          JOINT rForeArm
          {
            OFFSET -28.1742 -1.7115 0.48768
            CHANNELS 3 Zrotation Xrotation Yrotation
            JOINT rHand
            {
              OFFSET -22.5879 0.773209 7.07136
              CHANNELS 3 Zrotation Xrotation Yrotation
              JOINT rThumb1
              {
                OFFSET -1.2192 -0.487915 3.41376
                CHANNELS 3 Zrotation Xrotation Yrotation
                JOINT rThumb2
                {
                  OFFSET -3.37035 -0.52449 3.41376
                  CHANNELS 3 Zrotation Xrotation Yrotation
                  End Site
                  {
                    OFFSET -1.78271 -1.18214 1.43049
                  }
                }
              }
              JOINT rIndex1
              {
                OFFSET -7.75947 0.938293 5.60832
                CHANNELS 3 Zrotation Xrotation Yrotation
                JOINT rIndex2
                {
                  OFFSET -2.54057 -0.884171 1.56538
                  CHANNELS 3 Zrotation Xrotation Yrotation
                  End Site
                  {
                    OFFSET -1.62519 -0.234802 1.16502
                  }
                }
              }
              JOINT rMid1
              {
                OFFSET -8.24714 1.18213 3.41376
                CHANNELS 3 Zrotation Xrotation Yrotation
                JOINT rMid2
                {
                  OFFSET -3.10165 -0.590103 1.0647
                  CHANNELS 3 Zrotation Xrotation Yrotation
                  End Site
                  {
                    OFFSET -2.48547 -0.328903 0.83742
                  }
                }
              }
              JOINT rRing1
              {
                OFFSET -8.82822 0.546677 1.51678
                CHANNELS 3 Zrotation Xrotation Yrotation
                JOINT rRing2
                {
                  OFFSET -2.60934 -0.819778 -0.0198488
                  CHANNELS 3 Zrotation Xrotation Yrotation
                  End Site
                  {
                    OFFSET -2.33842 -0.294052 0.168128
                  }
                }
              }
              JOINT rPinky1
              {
                OFFSET -8.27202 -0.0477905 -0.4584
                CHANNELS 3 Zrotation Xrotation Yrotation
                JOINT rPinky2
                {
                  OFFSET -1.82734 -0.647385 -0.700984
                  CHANNELS 3 Zrotation Xrotation Yrotation
                  End Site
                  {
                    OFFSET -1.69225 -0.51767 -0.607171
                  }
                }
              }
            }
          }
        }
      }
      JOINT lCollar
      {
        OFFSET 2.68224 19.2634 -4.8768
        CHANNELS 3 Zrotation Xrotation Yrotation
        JOINT lShldr
        {
          OFFSET 8.77824 -1.95073 1.46304
          CHANNELS 3 Zrotation Xrotation Yrotation
          JOINT lForeArm
          {
            OFFSET 28.1742 -1.7115 0.48768
            CHANNELS 3 Zrotation Xrotation Yrotation
            JOINT lHand
            {
              OFFSET 22.5879 0.773209 7.07136
              CHANNELS 3 Zrotation Xrotation Yrotation
              JOINT lThumb1
              {
                OFFSET 1.2192 -0.487915 3.41376
                CHANNELS 3 Zrotation Xrotation Yrotation
                JOINT lThumb2
                {
                  OFFSET 3.37035 -0.52449 3.41376
                  CHANNELS 3 Zrotation Xrotation Yrotation
                  End Site
                  {
                    OFFSET 1.78271 -1.18214 1.43049
                  }
                }
              }
              JOINT lIndex1
              {
                OFFSET 7.75947 0.938293 5.60832
                CHANNELS 3 Zrotation Xrotation Yrotation
                JOINT lIndex2
                {
                  OFFSET 2.54057 -0.884171 1.56538
                  CHANNELS 3 Zrotation Xrotation Yrotation
                  End Site
                  {
                    OFFSET 1.62519 -0.234802 1.16502
                  }
                }
              }
              JOINT lMid1
              {
                OFFSET 8.24714 1.18213 3.41376
                CHANNELS 3 Zrotation Xrotation Yrotation
                JOINT lMid2
                {
                  OFFSET 3.10165 -0.590103 1.0647
                  CHANNELS 3 Zrotation Xrotation Yrotation
                  End Site
                  {
                    OFFSET 2.48547 -0.328903 0.83742
                  }
                }
              }
              JOINT lRing1
              {
                OFFSET 8.82822 0.546677 1.51678
                CHANNELS 3 Zrotation Xrotation Yrotation
                JOINT lRing2
                {
                  OFFSET 2.60934 -0.819778 -0.0198488
                  CHANNELS 3 Zrotation Xrotation Yrotation
                  End Site
                  {
                    OFFSET 2.33842 -0.294052 0.168128
                  }
                }
              }
              JOINT lPinky1
              {
                OFFSET 8.27202 -0.0477905 -0.4584
                CHANNELS 3 Zrotation Xrotation Yrotation
                JOINT lPinky2
                {
                  OFFSET 1.82734 -0.647385 -0.700984
                  CHANNELS 3 Zrotation Xrotation Yrotation
                  End Site
                  {
                    OFFSET 1.69225 -0.51767 -0.607171
                  }
                }
              }
            }
          }
        }
      }
    }
  }
  JOINT rButtock
  {
    OFFSET -8.77824 4.35084 1.2192
    CHANNELS 3 Zrotation Xrotation Yrotation
    JOINT rThigh
    {
      OFFSET 0 -1.70687 -2.19456
      CHANNELS 3 Zrotation Xrotation Yrotation
      JOINT rShin
      {
        OFFSET 0 -36.8199 0.73152
        CHANNELS 3 Zrotation Xrotation Yrotation
        JOINT rFoot
        {
          OFFSET 0.73152 -45.1104 -5.12064
          CHANNELS 3 Zrotation Xrotation Yrotation
          End Site
          {
            OFFSET -1.1221 -3.69964 12.103
          }
        }
      }
    }
  }
  JOINT lButtock
  {
    OFFSET 8.77824 4.35084 1.2192
    CHANNELS 3 Zrotation Xrotation Yrotation
    JOINT lThigh
    {
      OFFSET 0 -1.70687 -2.19456
      CHANNELS 3 Zrotation Xrotation Yrotation
      JOINT lShin
      {
        OFFSET 0 -36.8199 0.73152
        CHANNELS 3 Zrotation Xrotation Yrotation
        JOINT lFoot
        {
          OFFSET -0.73152 -45.1104 -5.12064
          CHANNELS 3 Zrotation Xrotation Yrotation
          End Site
          {
            OFFSET 1.1221 -3.69964 12.103
          }
        }
      }
    }
  }
}
MOTION
Frames:	4
Frame Time:	0.03333
-4.8441262932286016 42.393160517760755 11.006095378376527 -10.640732765197754 -23.36797523498535 5.475134372711182 8.247894287109375 10.3714017868042 8.448894500732422 -0.13012917339801788 -6.62090539932251 2.607637643814087 -4.017909049987793 12.940329551696777 -1.2248340845108032 6.796164512634277 -18.635913848876953 -1.2271363735198975 -0.08329262584447861 0.27189818024635315 -0.09004659950733185 0.09507467597723007 0.18041417002677917 -0.0061943246982991695 -0.02960086800158024 -0.18039287626743317 -0.055800944566726685 69.9244384765625 36.01805114746094 0.8283931016921997 -15.320535659790039 -7.941669464111328 28.532188415527344 0.04686634615063667 3.2266716957092285 0.6961187720298767 0.02790764532983303 -0.004166454542428255 0.027793223038315773 -0.12907423079013824 0.28045040369033813 -0.02271914854645729 -0.12804095447063446 0.023618344217538834 -0.09476372599601746 7.594095230102539 5.405327320098877 0.25895410776138306 -0.1100349873304367 -0.04699253663420677 -0.07587690651416779 3.033979892730713 1.0249121189117432 0.23863911628723145 -0.006944440770894289 -0.21220462024211884 0.10599303245544434 10.368621826171875 0.8785203099250793 0.11026595532894135 0.2816895544528961 0.10942251980304718 0.02801363542675972 1.9284977912902832 -0.6354907155036926 -0.30331602692604065 0.05207977816462517 0.034989841282367706 0.23048384487628937 -71.8418960571289 28.2576904296875 -3.809605598449707 15.937535285949707 -8.21275520324707 -30.011474609375 0.06575456261634827 7.851142406463623 -1.0628581047058105 -0.026978593319654465 0.20948264002799988 0.026671025902032852 -0.14428189396858215 0.057451020926237106 0.06709079444408417 -0.07523994147777557 -0.18009869754314423 -0.2772758901119232 -7.803271293640137 5.524672985076904 -0.5689114928245544 -0.15155161917209625 -0.08357875049114227 0.08778714388608932 -2.864086151123047 1.0812824964523315 0.012767412699759007 0.02057534083724022 -0.08332978934049606 0.2658928632736206 -10.124591827392578 0.7492823004722595 -0.06481494009494781 -0.015920765697956085 -0.10009054839611053 -0.0567874051630497 -2.296436309814453 -0.6648783683776855 0.22101451456546783 -0.04987764731049538 -0.02091257832944393 -0.1844465583562851 -1.0206760168075562 -5.927038669586182 -7.518041610717773 -0.4223208725452423 45.55784606933594 1.4974944591522217 -15.415640830993652 -20.345090866088867 -27.158796310424805 -0.06657015532255173 0.04940345138311386 -0.4267113506793976 41.72429656982422 -52.42959976196289 28.09200096130371 0.6137827038764954 50.26702880859375 -0.5806516408920288 0.7465015649795532 10.58190631866455 -3.318310499191284
-4.911341544520462 42.27160364110203 11.453626394907834 -10.72327709197998 -23.766218185424805 5.8088603019714355 8.18613052368164 10.560094833374023 8.7034273147583 -0.16295358538627625 -6.685608386993408 2.64481258392334 -4.023066520690918 12.956263542175293 -1.2030706405639648 6.880059242248535 -19.265485763549805 -1.1164731979370117 -0.09057775884866714 0.2432030588388443 -0.07312416285276413 0.10520590841770172 0.17788220942020416 -0.0017534168437123299 -0.0063094268552958965 -0.17836278676986694 -0.08396130800247192 69.26905822753906 36.7464485168457 1.6721659898757935 -15.368023872375488 -7.938539028167725 28.656951904296875 0.029366901144385338 3.6975669860839844 0.7566690444946289 0.048501066863536835 -0.011454619467258453 0.03805699944496155 -0.13825061917304993 0.26376742124557495 -0.006091300398111343 -0.13181458413600922 0.035764604806900024 -0.08416002243757248 7.592892169952393 5.394625663757324 0.2492896169424057 -0.13001355528831482 -0.0417514406144619 -0.06118490546941757 3.0364303588867188 0.988481342792511 0.234839528799057 -0.005917020607739687 -0.1846373975276947 0.1100168526172638 10.377638816833496 0.8573989868164062 0.07088572531938553 0.25955554842948914 0.12806376814842224 0.03450779616832733 1.940508246421814 -0.6814393401145935 -0.30424463748931885 0.05149257928133011 0.040985602885484695 0.21312390267848969 -71.13286590576172 28.39945411682129 -4.685040473937988 15.990325927734375 -8.274229049682617 -30.107816696166992 0.016721468418836594 8.016047477722168 -1.0854454040527344 -0.045671749860048294 0.18767410516738892 0.013257336802780628 -0.15439532697200775 0.07721138745546341 0.07577935606241226 -0.07641260325908661 -0.19258035719394684 -0.28001970052719116 -7.7773566246032715 5.5085368156433105 -0.5583913922309875 -0.1833450347185135 -0.08784358948469162 0.06519080698490143 -2.858184814453125 1.0949031114578247 0.019006401300430298 0.020836852490901947 -0.09615558385848999 0.26873502135276794 -10.124691009521484 0.7528595924377441 -0.08743391931056976 -0.02068743295967579 -0.06839966028928757 -0.04391615465283394 -2.302873373031616 -0.6478311419487 0.21219724416732788 -0.03047296032309532 -0.03965003415942192 -0.1825566291809082 -1.3573635816574097 -6.081639766693115 -8.13563060760498 -0.42360827326774597 45.85332107543945 1.5349924564361572 -15.381479263305664 -20.54277229309082 -26.95284080505371 -0.05270087346434593 0.04119826480746269 -0.43149659037590027 42.78147506713867 -52.603519439697266 29.875314712524414 0.6912996768951416 51.45541763305664 -0.6625929474830627 0.7033469676971436 9.667555809020996 -3.545289993286133
-4.981052482902022 42.21720801455206 11.859551634275126 -10.652178764343262 -24.18494987487793 6.1392316818237305 7.936737537384033 10.88517951965332 9.049838066101074 -0.22432073950767517 -6.7668375968933105 2.710414409637451 -3.990266799926758 12.93850326538086 -1.097623348236084 6.889312744140625 -20.025835037231445 -0.8460962176322937 -0.09050867706537247 0.21393153071403503 -0.04096640646457672 0.13054129481315613 0.17972658574581146 0.013768615201115608 0.018272146582603455 -0.1734464466571808 -0.10370440036058426 68.02494812011719 37.66231918334961 3.3266761302948 -15.561247825622559 -8.11131763458252 29.083118438720703 0.0036946788895875216 4.0901970863342285 0.7991533279418945 0.05409133434295654 -0.01789548061788082 0.03502124547958374 -0.15588165819644928 0.2398294061422348 0.021202338859438896 -0.13544799387454987 0.060329362750053406 -0.05594606325030327 7.59968900680542 5.385259628295898 0.24640749394893646 -0.1439642757177353 -0.03972342610359192 -0.04911603033542633 3.0372872352600098 0.9647510647773743 0.22726036608219147 -0.0017737213056534529 -0.15778537094593048 0.10443559288978577 10.383625984191895 0.831381618976593 0.005677418317645788 0.2258806973695755 0.1461566835641861 0.039231859147548676 1.9631506204605103 -0.734461784362793 -0.2908268868923187 0.03939167410135269 0.043900590389966965 0.18814298510551453 -70.26373291015625 28.680877685546875 -5.804116725921631 16.270212173461914 -8.656012535095215 -30.651830673217773 -0.03611280024051666 8.009445190429688 -1.080094814300537 -0.044413331896066666 0.15755386650562286 0.012691701762378216 -0.1643182933330536 0.09702831506729126 0.07905816286802292 -0.07322943955659866 -0.19243603944778442 -0.2890539765357971 -7.748144626617432 5.492431163787842 -0.5491583347320557 -0.22548939287662506 -0.07589168846607208 0.04441634938120842 -2.8659582138061523 1.1077075004577637 0.022030523046851158 0.01011569332331419 -0.12284213304519653 0.27148211002349854 -10.12358283996582 0.7502469420433044 -0.11090325564146042 -0.0345960333943367 -0.04723743349313736 -0.015025114640593529 -2.2908577919006348 -0.6305745840072632 0.1979902684688568 -0.01533274631947279 -0.06265038996934891 -0.19072449207305908 -1.774908185005188 -6.681482791900635 -8.883748054504395 -0.4648965895175934 46.683197021484375 1.6016629934310913 -15.345418930053711 -20.626073837280273 -26.782882690429688 -0.04822133481502533 0.027744023129343987 -0.42481446266174316 43.60112380981445 -52.70960998535156 31.50860595703125 0.7782851457595825 52.621273040771484 -0.7526127099990845 0.6956978440284729 8.805022239685059 -3.4702486991882324
-5.056875053208568 42.177155785259096 12.225303088326578 -10.628212928771973 -24.579570770263672 6.475282669067383 7.725503444671631 11.229168891906738 9.425350189208984 -0.29639768600463867 -6.830654144287109 2.7758421897888184 -3.9173736572265625 12.896044731140137 -0.9413812160491943 6.886507034301758 -20.830419540405273 -0.49567100405693054 -0.09418153017759323 0.1841459721326828 -0.004139978904277086 0.1540907323360443 0.17419832944869995 0.019798874855041504 0.03949955850839615 -0.16573621332645416 -0.1218201145529747 66.4898681640625 38.77465057373047 5.282952308654785 -15.870949745178223 -8.39434814453125 29.73122787475586 -0.02434518188238144 4.472682476043701 0.8312586545944214 0.05649120360612869 -0.019288137555122375 0.02262970432639122 -0.16893690824508667 0.21065154671669006 0.05191570520401001 -0.14254705607891083 0.08592479676008224 -0.029061859473586082 7.607330322265625 5.37862491607666 0.2363089770078659 -0.1520029753446579 -0.041472841054201126 -0.03935737535357475 3.0351107120513916 0.9425981640815735 0.22341008484363556 -0.000965178944170475 -0.12465400248765945 0.092129647731781 10.398076057434082 0.805704653263092 -0.05572425201535225 0.1873316913843155 0.15924963355064392 0.03903336450457573 1.9959728717803955 -0.8024922609329224 -0.282534658908844 0.021977940574288368 0.038219623267650604 0.16162265837192535 -69.20783996582031 28.969934463500977 -7.124166011810303 16.611528396606445 -9.091341972351074 -31.291988372802734 -0.09067825227975845 8.097273826599121 -1.09605073928833 -0.03512481600046158 0.11652148514986038 0.007819603197276592 -0.17592883110046387 0.12053444981575012 0.08152582496404648 -0.07367672771215439 -0.17862267792224884 -0.2970680594444275 -7.715616703033447 5.476000785827637 -0.5432272553443909 -0.26488324999809265 -0.06262600421905518 0.026668239384889603 -2.875718355178833 1.1104254722595215 0.022915860638022423 -0.008684199303388596 -0.15145327150821686 0.27833592891693115 -10.118770599365234 0.7551429867744446 -0.13870973885059357 -0.0566868931055069 -0.022309118881821632 0.016661962494254112 -2.2806239128112793 -0.6090869307518005 0.18741245567798615 -0.0014814273454248905 -0.08228965103626251 -0.19682662189006805 -2.180966854095459 -7.1932806968688965 -9.627424240112305 -0.5155264139175415 47.433719635009766 1.6771498918533325 -15.371732711791992 -20.6933650970459 -26.780122756958008 -0.053728245198726654 0.013269362971186638 -0.40540093183517456 44.58943557739258 -52.818050384521484 33.27530288696289 0.8792654275894165 53.772701263427734 -0.8486654162406921 0.6660050749778748 8.019584655761719 -3.309537887573242
